<?xml version="1.0" encoding="UTF-8"?>
<svg version="1.1" viewBox="0 0 2000 2000" width="1280" height="1280" xmlns="http://www.w3.org/2000/svg">
<path transform="translate(0)" d="m0 0h2e3v2e3h-2e3z" fill="#fff"/>
<path transform="translate(1113,736)" d="m0 0h33l14 2 3 2-1 6-8 13-8 18-7 21-7 24h51v76h43v42l7-11 17-17 14-9 11-5 14-4 16-2h13l16 2 16 5 17 9 12 9-1-4v-14l1-1h70l1 12v70l5-17 7-14 10-14 13-13 8-7 15-10 19-8 18-4 10-1h15l17 2 17 4 16 6 6 3v-148h70l1 1v209l14-14h2v-2l5-5 6-5 5-6 8-7 4-5 5-5h2l2-4 4-4h2l2-4 9-9 3-1h90l-4 6-14 13-6 7h-2l-2 4-4 4h-2l-2 4h-2l-2 4h-2l-2 4h-2l-2 4h-2l-2 4h-2l-2 4h-2l-2 4-36 36 6 7 99 99v2h-89l-8-7-62-62-3-2v-2l-4-2-4-5-2-1v80l-1 1h-70v-9l-13 6-20 6-20 3h-18l-16-2-15-4-16-7-14-9-11-9-11-11-10-14-7-14-4-10-1-5v36l-1 43h-69l-1-1v-22h-2l-2 4-11 9-14 8-13 5-16 3h-17l-16-2-16-5-15-8-13-10-11-11-9-14-2-3 8 24 3 12v5l-17 7-16 4-10 1h-14l-15-2-14-5-11-7-8-8-8-14-5-13-3-21-1-87h-27l-2-1v-18l-6 15-5 6-13-6-18-5-7-1h-15l-10 3-3 5 1 8 5 5 8 4 30 10 17 8 13 9 9 9 6 10 4 12 1 9v10l-2 14-5 14-8 11-7 7-13 8-13 5-24 5-12 1h-23l-15-2-19-5-19-8-12-8-4-3v-5l7-11 18-30 2-4 7 4 10 7 20 9 7 2 9 1 14-3 5-6 1-8-3-6-10-6-28-11-14-8-11-8-10-9-6-10-4-12-1-13 2-15 5-13 7-10 8-8 11-7 1-2-4 1-14-7-10-9-13-18-12-17-9-10-7-6 1-3 21-8 13-3 9-1h17l14 2 13 4h4l3-12 7-16 9-14 11-12 9-8 16-10 14-7 18-6 18-4z" fill="#010101"/>
<path transform="translate(645,759)" d="m0 0h70l1 220 5-17 7-14 7-10 12-14 13-11 15-9 11-5 13-4 21-3h15l18 2 16 4 18 8 12 8 10 9 7 7 9 14 6 14 4 16 2 11v26h-149l3 16 4 8 6 7 12 7 11 3h21l12-3 10-5 10-9 4-4 5 1 42 21 5 3-2 5-10 13-9 9-13 9-15 8-15 5-20 4-14 1h-13l-19-2-15-4-19-9-13-9-12-11-9-10-9-14-6-13-4-13v25l-1 54h-69l-1-1v-19l1-3h-3v2h-2l-2 4-12 9-10 6-18 6-16 2-23-1-17-4-17-8-11-8-10-9-8-9-9-14-6-13-7 14-8 10-7 8-11 9-14 9-14 7-16 5-16 3-15 1h-12l-23-2-17-4-16-6-16-9-10-8-10-9-8-10-8-13-7-19-3-18v-19l3-20 6-15 5-10 12-16 9-9 13-10 16-9 13-5 15-4 12-2 12-1h16l18 2 17 4 19 8 14 8 11 9 7 6 9 11 8 12 3 7 8-17 10-14 9-10 14-11 15-8 17-5 16-2h12l21 3 16 6 13 7 10 8 2 1-1-19v-138z" fill="#010101"/>
<path transform="translate(190,892)" d="m0 0h14l18 2 19 5 13 5 9 6 1 4-19 38-3 7-6-1-9-4-9-2h-22l-13 5-9 7-8 9-5 10-2 7-1 15 3 14 7 13 5 6 8 6 10 5 16 2 17-2 13-5 4-1 3 5 20 41-1 4-8 5-20 7-19 4-12 1h-13l-19-2-17-5-16-8-11-7-11-9-12-12-7-10-7-12-5-14-3-12-1-8v-19l3-17 5-14 8-15 9-12 15-15 15-11 16-8 15-5 11-2z" fill="#010101"/>
<path transform="translate(124,1124)" d="m0 0h785v16h-785l-1-1v-14z" fill="#010101"/>
<path transform="translate(1625,921)" d="m0 0h1v160l-3-4-11-23-5-10-4 1-13 5-16 2-13-1-10-4-9-6-5-5-6-7-5-10-2-7-1-13 3-16 6-11 9-10 10-7 8-3 4-1h21l15 4 8 4 11-23 6-12z" fill="#fff"/>
<path transform="translate(592,953)" d="m0 0h13l12 3 11 6 8 8 6 10 4 13v17l-4 13-7 11-9 8-11 5-8 2h-18l-13-4-10-6-7-8-7-14-2-11v-10l4-15 5-9 7-8 11-7 9-3z" fill="#fff"/>
<path transform="translate(361,953)" d="m0 0h13l12 3 9 5 10 9 6 10 4 13v17l-4 13-7 11-9 8-11 5-8 2h-18l-11-3-9-5-7-6-7-11-4-12-1-13 3-16 6-11 7-8 11-7 8-3z" fill="#fff"/>
<path transform="translate(1326,953)" d="m0 0h13l12 3 9 5 10 9 6 10 4 13v16l-3 12-6 10-7 8-10 6-9 3-5 1h-17l-13-4-10-6-8-9-6-13-2-17 2-14 7-14 6-7 10-7 10-4z" fill="#fff"/>
<path transform="translate(1183,952)" d="m0 0h36l-1 4-5 16-3 19v22l3 18 3 11-4 1-8 3h-10l-7-6-3-7-1-5z" fill="#fff"/>
<path transform="translate(818,939)" d="m0 0h21l11 4 8 6 6 9 4 10v3l-64 1-14-1 1-8 5-10 4-5 9-6z" fill="#fff"/>
<path transform="translate(1111,757)" d="m0 0 4 1-21 8-15 8-16 12-11 11-10 13-8 14-8 19-2 6-1 8-5-4-9-13 3-10 8-15 8-11 9-10 10-9 16-10 14-7 30-10z" fill="#fff"/>
<path transform="translate(1111,862)" d="m0 0h1v36l-3 1-26-1-1 5-16-5-16-3-20-2-2-2v-5h28l16-2 14-4 13-7 10-9z" fill="#fff"/>
<path transform="translate(1e3 857)" d="m0 0 5 5 6 9 1 2 1 10 6 4 1 5-5 1-5-2-7-13-4-6v-11z" fill="#fff"/>
<path transform="translate(937,836)" d="m0 0h23l15 3 13 5 4 3v9l-4-1-10-7-16-7-14-3-11-1z" fill="#fff"/>
</svg>
